<mxfile host="app.diagrams.net" agent="Mozilla/5.0 (Macintosh; Intel Mac OS X 10.15; rv:134.0) Gecko/20100101 Firefox/134.0" version="26.0.8">
  <diagram name="Page-1" id="9f46799a-70d6-7492-0946-bef42562c5a5">
    <mxGraphModel dx="2909" dy="1957" grid="1" gridSize="10" guides="1" tooltips="1" connect="1" arrows="1" fold="1" page="1" pageScale="1" pageWidth="1100" pageHeight="850" background="none" math="0" shadow="0">
      <root>
        <mxCell id="0" />
        <mxCell id="1" parent="0" />
        <mxCell id="m6kXR_CL7WyC1PEhrBlB-1" value="&lt;div&gt;pico/&lt;/div&gt;&lt;div&gt;satellite_telemetry_simulator.h&lt;/div&gt;" style="swimlane;html=1;fontStyle=1;align=center;verticalAlign=top;childLayout=stackLayout;horizontal=1;startSize=50;horizontalStack=0;resizeParent=1;resizeLast=0;collapsible=1;marginBottom=0;swimlaneFillColor=#ffffff;rounded=0;shadow=0;comic=0;labelBackgroundColor=none;strokeWidth=1;fillColor=none;fontFamily=Verdana;fontSize=12" vertex="1" parent="1">
          <mxGeometry x="-410" y="360" width="250" height="220" as="geometry" />
        </mxCell>
        <mxCell id="m6kXR_CL7WyC1PEhrBlB-2" value="json get_satellite_data()" style="text;html=1;strokeColor=none;fillColor=none;align=left;verticalAlign=top;spacingLeft=4;spacingRight=4;whiteSpace=wrap;overflow=hidden;rotatable=0;points=[[0,0.5],[1,0.5]];portConstraint=eastwest;" vertex="1" parent="m6kXR_CL7WyC1PEhrBlB-1">
          <mxGeometry y="50" width="250" height="26" as="geometry" />
        </mxCell>
        <mxCell id="m6kXR_CL7WyC1PEhrBlB-9" value="" style="line;html=1;strokeWidth=1;fillColor=none;align=left;verticalAlign=middle;spacingTop=-1;spacingLeft=3;spacingRight=3;rotatable=0;labelPosition=right;points=[];portConstraint=eastwest;" vertex="1" parent="m6kXR_CL7WyC1PEhrBlB-1">
          <mxGeometry y="76" width="250" height="8" as="geometry" />
        </mxCell>
        <mxCell id="m6kXR_CL7WyC1PEhrBlB-115" value="json j" style="text;html=1;strokeColor=none;fillColor=none;align=left;verticalAlign=top;spacingLeft=4;spacingRight=4;whiteSpace=wrap;overflow=hidden;rotatable=0;points=[[0,0.5],[1,0.5]];portConstraint=eastwest;" vertex="1" parent="m6kXR_CL7WyC1PEhrBlB-1">
          <mxGeometry y="84" width="250" height="26" as="geometry" />
        </mxCell>
        <mxCell id="m6kXR_CL7WyC1PEhrBlB-116" value="BME280Data bme280_data" style="text;html=1;strokeColor=none;fillColor=none;align=left;verticalAlign=top;spacingLeft=4;spacingRight=4;whiteSpace=wrap;overflow=hidden;rotatable=0;points=[[0,0.5],[1,0.5]];portConstraint=eastwest;" vertex="1" parent="m6kXR_CL7WyC1PEhrBlB-1">
          <mxGeometry y="110" width="250" height="26" as="geometry" />
        </mxCell>
        <mxCell id="m6kXR_CL7WyC1PEhrBlB-117" value="MPU6050 mpu6050_data" style="text;html=1;strokeColor=none;fillColor=none;align=left;verticalAlign=top;spacingLeft=4;spacingRight=4;whiteSpace=wrap;overflow=hidden;rotatable=0;points=[[0,0.5],[1,0.5]];portConstraint=eastwest;" vertex="1" parent="m6kXR_CL7WyC1PEhrBlB-1">
          <mxGeometry y="136" width="250" height="26" as="geometry" />
        </mxCell>
        <mxCell id="m6kXR_CL7WyC1PEhrBlB-118" value="SatelliteData satellite_data" style="text;html=1;strokeColor=none;fillColor=none;align=left;verticalAlign=top;spacingLeft=4;spacingRight=4;whiteSpace=wrap;overflow=hidden;rotatable=0;points=[[0,0.5],[1,0.5]];portConstraint=eastwest;" vertex="1" parent="m6kXR_CL7WyC1PEhrBlB-1">
          <mxGeometry y="162" width="250" height="26" as="geometry" />
        </mxCell>
        <mxCell id="m6kXR_CL7WyC1PEhrBlB-119" value="MPUDataStruct _mpu_data_struct" style="text;html=1;strokeColor=none;fillColor=none;align=left;verticalAlign=top;spacingLeft=4;spacingRight=4;whiteSpace=wrap;overflow=hidden;rotatable=0;points=[[0,0.5],[1,0.5]];portConstraint=eastwest;" vertex="1" parent="m6kXR_CL7WyC1PEhrBlB-1">
          <mxGeometry y="188" width="250" height="26" as="geometry" />
        </mxCell>
        <mxCell id="m6kXR_CL7WyC1PEhrBlB-40" value="&lt;div&gt;pico/satellite_factory.h&lt;/div&gt;&lt;div&gt;&lt;br&gt;&lt;/div&gt;" style="swimlane;html=1;fontStyle=1;align=center;verticalAlign=top;childLayout=stackLayout;horizontal=1;startSize=26;horizontalStack=0;resizeParent=1;resizeLast=0;collapsible=1;marginBottom=0;swimlaneFillColor=#ffffff;rounded=0;shadow=0;comic=0;labelBackgroundColor=none;strokeWidth=1;fillColor=none;fontFamily=Verdana;fontSize=12" vertex="1" parent="1">
          <mxGeometry x="-410" y="100" width="250" height="150" as="geometry" />
        </mxCell>
        <mxCell id="m6kXR_CL7WyC1PEhrBlB-41" value="SatelliteSensors: class inherits from SatelliteInterface" style="text;html=1;strokeColor=none;fillColor=none;align=left;verticalAlign=top;spacingLeft=4;spacingRight=4;whiteSpace=wrap;overflow=hidden;rotatable=0;points=[[0,0.5],[1,0.5]];portConstraint=eastwest;" vertex="1" parent="m6kXR_CL7WyC1PEhrBlB-40">
          <mxGeometry y="26" width="250" height="34" as="geometry" />
        </mxCell>
        <mxCell id="m6kXR_CL7WyC1PEhrBlB-48" value="" style="line;html=1;strokeWidth=1;fillColor=none;align=left;verticalAlign=middle;spacingTop=-1;spacingLeft=3;spacingRight=3;rotatable=0;labelPosition=right;points=[];portConstraint=eastwest;" vertex="1" parent="m6kXR_CL7WyC1PEhrBlB-40">
          <mxGeometry y="60" width="250" height="8" as="geometry" />
        </mxCell>
        <mxCell id="m6kXR_CL7WyC1PEhrBlB-49" value="SatelliteSensors :: SatelliteData get_satellite_data() override" style="text;html=1;strokeColor=none;fillColor=none;align=left;verticalAlign=top;spacingLeft=4;spacingRight=4;whiteSpace=wrap;overflow=hidden;rotatable=0;points=[[0,0.5],[1,0.5]];portConstraint=eastwest;" vertex="1" parent="m6kXR_CL7WyC1PEhrBlB-40">
          <mxGeometry y="68" width="250" height="42" as="geometry" />
        </mxCell>
        <mxCell id="m6kXR_CL7WyC1PEhrBlB-50" value="std::unique_ptr&amp;lt;SatelliteInterface&amp;gt; make_satellite_sensors()" style="text;html=1;strokeColor=none;fillColor=none;align=left;verticalAlign=top;spacingLeft=4;spacingRight=4;whiteSpace=wrap;overflow=hidden;rotatable=0;points=[[0,0.5],[1,0.5]];portConstraint=eastwest;" vertex="1" parent="m6kXR_CL7WyC1PEhrBlB-40">
          <mxGeometry y="110" width="250" height="40" as="geometry" />
        </mxCell>
        <mxCell id="m6kXR_CL7WyC1PEhrBlB-52" value="Qt/satellite_factory.h&lt;div&gt;&lt;br&gt;&lt;/div&gt;" style="swimlane;html=1;fontStyle=1;align=center;verticalAlign=top;childLayout=stackLayout;horizontal=1;startSize=26;horizontalStack=0;resizeParent=1;resizeLast=0;collapsible=1;marginBottom=0;swimlaneFillColor=#ffffff;rounded=0;shadow=0;comic=0;labelBackgroundColor=none;strokeWidth=1;fillColor=none;fontFamily=Verdana;fontSize=12" vertex="1" parent="1">
          <mxGeometry x="-790" y="320" width="250" height="170" as="geometry" />
        </mxCell>
        <mxCell id="m6kXR_CL7WyC1PEhrBlB-53" value="SatFactory: class" style="text;html=1;strokeColor=none;fillColor=none;align=left;verticalAlign=top;spacingLeft=4;spacingRight=4;whiteSpace=wrap;overflow=hidden;rotatable=0;points=[[0,0.5],[1,0.5]];portConstraint=eastwest;" vertex="1" parent="m6kXR_CL7WyC1PEhrBlB-52">
          <mxGeometry y="26" width="250" height="26" as="geometry" />
        </mxCell>
        <mxCell id="m6kXR_CL7WyC1PEhrBlB-60" value="" style="line;html=1;strokeWidth=1;fillColor=none;align=left;verticalAlign=middle;spacingTop=-1;spacingLeft=3;spacingRight=3;rotatable=0;labelPosition=right;points=[];portConstraint=eastwest;" vertex="1" parent="m6kXR_CL7WyC1PEhrBlB-52">
          <mxGeometry y="52" width="250" height="8" as="geometry" />
        </mxCell>
        <mxCell id="m6kXR_CL7WyC1PEhrBlB-61" value="SatFactory(std::unique_ptr&amp;lt;SatelliteInterface&amp;gt;&amp;amp;&amp;amp; sensors" style="text;html=1;strokeColor=none;fillColor=none;align=left;verticalAlign=top;spacingLeft=4;spacingRight=4;whiteSpace=wrap;overflow=hidden;rotatable=0;points=[[0,0.5],[1,0.5]];portConstraint=eastwest;" vertex="1" parent="m6kXR_CL7WyC1PEhrBlB-52">
          <mxGeometry y="60" width="250" height="40" as="geometry" />
        </mxCell>
        <mxCell id="m6kXR_CL7WyC1PEhrBlB-62" value="SatelliteData SatFactory::get_satellite_data()" style="text;html=1;strokeColor=none;fillColor=none;align=left;verticalAlign=top;spacingLeft=4;spacingRight=4;whiteSpace=wrap;overflow=hidden;rotatable=0;points=[[0,0.5],[1,0.5]];portConstraint=eastwest;" vertex="1" parent="m6kXR_CL7WyC1PEhrBlB-52">
          <mxGeometry y="100" width="250" height="26" as="geometry" />
        </mxCell>
        <mxCell id="m6kXR_CL7WyC1PEhrBlB-63" value="std::unique_ptr&amp;lt;SatelliteInterface&amp;gt; SatFactory::satData" style="text;html=1;strokeColor=none;fillColor=none;align=left;verticalAlign=top;spacingLeft=4;spacingRight=4;whiteSpace=wrap;overflow=hidden;rotatable=0;points=[[0,0.5],[1,0.5]];portConstraint=eastwest;" vertex="1" parent="m6kXR_CL7WyC1PEhrBlB-52">
          <mxGeometry y="126" width="250" height="44" as="geometry" />
        </mxCell>
        <mxCell id="m6kXR_CL7WyC1PEhrBlB-88" value="Qt/q_threads.h&lt;div&gt;&lt;br&gt;&lt;/div&gt;" style="swimlane;html=1;fontStyle=1;align=center;verticalAlign=top;childLayout=stackLayout;horizontal=1;startSize=26;horizontalStack=0;resizeParent=1;resizeLast=0;collapsible=1;marginBottom=0;swimlaneFillColor=#ffffff;rounded=0;shadow=0;comic=0;labelBackgroundColor=none;strokeWidth=1;fillColor=none;fontFamily=Verdana;fontSize=12" vertex="1" parent="1">
          <mxGeometry x="-1100" y="30" width="250" height="300" as="geometry" />
        </mxCell>
        <mxCell id="m6kXR_CL7WyC1PEhrBlB-89" value="SatDataThread: class" style="text;html=1;strokeColor=none;fillColor=none;align=left;verticalAlign=top;spacingLeft=4;spacingRight=4;whiteSpace=wrap;overflow=hidden;rotatable=0;points=[[0,0.5],[1,0.5]];portConstraint=eastwest;" vertex="1" parent="m6kXR_CL7WyC1PEhrBlB-88">
          <mxGeometry y="26" width="250" height="26" as="geometry" />
        </mxCell>
        <mxCell id="m6kXR_CL7WyC1PEhrBlB-96" value="" style="line;html=1;strokeWidth=1;fillColor=none;align=left;verticalAlign=middle;spacingTop=-1;spacingLeft=3;spacingRight=3;rotatable=0;labelPosition=right;points=[];portConstraint=eastwest;" vertex="1" parent="m6kXR_CL7WyC1PEhrBlB-88">
          <mxGeometry y="52" width="250" height="8" as="geometry" />
        </mxCell>
        <mxCell id="m6kXR_CL7WyC1PEhrBlB-97" value="SatDataThread() = default" style="text;html=1;strokeColor=none;fillColor=none;align=left;verticalAlign=top;spacingLeft=4;spacingRight=4;whiteSpace=wrap;overflow=hidden;rotatable=0;points=[[0,0.5],[1,0.5]];portConstraint=eastwest;" vertex="1" parent="m6kXR_CL7WyC1PEhrBlB-88">
          <mxGeometry y="60" width="250" height="26" as="geometry" />
        </mxCell>
        <mxCell id="m6kXR_CL7WyC1PEhrBlB-98" value="~SatDataThread() = default" style="text;html=1;strokeColor=none;fillColor=none;align=left;verticalAlign=top;spacingLeft=4;spacingRight=4;whiteSpace=wrap;overflow=hidden;rotatable=0;points=[[0,0.5],[1,0.5]];portConstraint=eastwest;" vertex="1" parent="m6kXR_CL7WyC1PEhrBlB-88">
          <mxGeometry y="86" width="250" height="26" as="geometry" />
        </mxCell>
        <mxCell id="m6kXR_CL7WyC1PEhrBlB-99" value="SatFactory SatDataThread::satFactory" style="text;html=1;strokeColor=none;fillColor=none;align=left;verticalAlign=top;spacingLeft=4;spacingRight=4;whiteSpace=wrap;overflow=hidden;rotatable=0;points=[[0,0.5],[1,0.5]];portConstraint=eastwest;" vertex="1" parent="m6kXR_CL7WyC1PEhrBlB-88">
          <mxGeometry y="112" width="250" height="26" as="geometry" />
        </mxCell>
        <mxCell id="m6kXR_CL7WyC1PEhrBlB-125" value="void SatDataThread::processData()" style="text;html=1;strokeColor=none;fillColor=none;align=left;verticalAlign=top;spacingLeft=4;spacingRight=4;whiteSpace=wrap;overflow=hidden;rotatable=0;points=[[0,0.5],[1,0.5]];portConstraint=eastwest;" vertex="1" parent="m6kXR_CL7WyC1PEhrBlB-88">
          <mxGeometry y="138" width="250" height="26" as="geometry" />
        </mxCell>
        <mxCell id="m6kXR_CL7WyC1PEhrBlB-100" value="common/satellite_data.h" style="swimlane;html=1;fontStyle=1;align=center;verticalAlign=top;childLayout=stackLayout;horizontal=1;startSize=26;horizontalStack=0;resizeParent=1;resizeLast=0;collapsible=1;marginBottom=0;swimlaneFillColor=#ffffff;rounded=0;shadow=0;comic=0;labelBackgroundColor=none;strokeWidth=1;fillColor=none;fontFamily=Verdana;fontSize=12" vertex="1" parent="1">
          <mxGeometry x="-790" y="-150" width="250" height="180" as="geometry" />
        </mxCell>
        <mxCell id="m6kXR_CL7WyC1PEhrBlB-101" value="SatelliteData: struct" style="text;html=1;strokeColor=none;fillColor=none;align=left;verticalAlign=top;spacingLeft=4;spacingRight=4;whiteSpace=wrap;overflow=hidden;rotatable=0;points=[[0,0.5],[1,0.5]];portConstraint=eastwest;" vertex="1" parent="m6kXR_CL7WyC1PEhrBlB-100">
          <mxGeometry y="26" width="250" height="26" as="geometry" />
        </mxCell>
        <mxCell id="m6kXR_CL7WyC1PEhrBlB-102" value="SatelliteInterface: class" style="text;html=1;strokeColor=none;fillColor=none;align=left;verticalAlign=top;spacingLeft=4;spacingRight=4;whiteSpace=wrap;overflow=hidden;rotatable=0;points=[[0,0.5],[1,0.5]];portConstraint=eastwest;" vertex="1" parent="m6kXR_CL7WyC1PEhrBlB-100">
          <mxGeometry y="52" width="250" height="26" as="geometry" />
        </mxCell>
        <mxCell id="m6kXR_CL7WyC1PEhrBlB-108" value="" style="line;html=1;strokeWidth=1;fillColor=none;align=left;verticalAlign=middle;spacingTop=-1;spacingLeft=3;spacingRight=3;rotatable=0;labelPosition=right;points=[];portConstraint=eastwest;" vertex="1" parent="m6kXR_CL7WyC1PEhrBlB-100">
          <mxGeometry y="78" width="250" height="8" as="geometry" />
        </mxCell>
        <mxCell id="m6kXR_CL7WyC1PEhrBlB-109" value="&lt;div&gt;SatelliteInterface ::&amp;nbsp;&lt;/div&gt;&lt;div&gt;virtual SatelliteData get_satellite_data()&lt;/div&gt;" style="text;html=1;strokeColor=none;fillColor=none;align=left;verticalAlign=top;spacingLeft=4;spacingRight=4;whiteSpace=wrap;overflow=hidden;rotatable=0;points=[[0,0.5],[1,0.5]];portConstraint=eastwest;" vertex="1" parent="m6kXR_CL7WyC1PEhrBlB-100">
          <mxGeometry y="86" width="250" height="44" as="geometry" />
        </mxCell>
        <mxCell id="m6kXR_CL7WyC1PEhrBlB-110" value="make_satellite_interface():&amp;nbsp;&amp;nbsp;&amp;nbsp;&amp;nbsp; std::unique_ptr&amp;lt;SatelliteInterface&amp;gt;" style="text;html=1;strokeColor=none;fillColor=none;align=left;verticalAlign=top;spacingLeft=4;spacingRight=4;whiteSpace=wrap;overflow=hidden;rotatable=0;points=[[0,0.5],[1,0.5]];portConstraint=eastwest;" vertex="1" parent="m6kXR_CL7WyC1PEhrBlB-100">
          <mxGeometry y="130" width="250" height="40" as="geometry" />
        </mxCell>
        <mxCell id="m6kXR_CL7WyC1PEhrBlB-120" style="edgeStyle=orthogonalEdgeStyle;html=1;labelBackgroundColor=none;startFill=0;startSize=8;endArrow=open;endFill=0;endSize=16;fontFamily=Verdana;fontSize=12;dashed=1;exitX=0.48;exitY=0;exitDx=0;exitDy=0;exitPerimeter=0;" edge="1" parent="1" source="m6kXR_CL7WyC1PEhrBlB-1">
          <mxGeometry relative="1" as="geometry">
            <Array as="points">
              <mxPoint x="-290" y="290" />
              <mxPoint x="-290" y="290" />
            </Array>
            <mxPoint x="-120" y="163" as="sourcePoint" />
            <mxPoint x="-290" y="250" as="targetPoint" />
          </mxGeometry>
        </mxCell>
        <mxCell id="m6kXR_CL7WyC1PEhrBlB-121" style="edgeStyle=orthogonalEdgeStyle;html=1;labelBackgroundColor=none;startFill=0;startSize=8;endArrow=open;endFill=0;endSize=16;fontFamily=Verdana;fontSize=12;dashed=1;exitX=1;exitY=0.5;exitDx=0;exitDy=0;entryX=0.003;entryY=0.1;entryDx=0;entryDy=0;entryPerimeter=0;" edge="1" parent="1" source="m6kXR_CL7WyC1PEhrBlB-109" target="m6kXR_CL7WyC1PEhrBlB-1">
          <mxGeometry relative="1" as="geometry">
            <Array as="points">
              <mxPoint x="-460" y="-42" />
              <mxPoint x="-460" y="382" />
            </Array>
            <mxPoint x="-460" y="-10" as="sourcePoint" />
            <mxPoint x="-440" y="360" as="targetPoint" />
          </mxGeometry>
        </mxCell>
        <mxCell id="m6kXR_CL7WyC1PEhrBlB-122" style="edgeStyle=orthogonalEdgeStyle;html=1;labelBackgroundColor=none;startFill=0;startSize=8;endArrow=open;endFill=0;endSize=16;fontFamily=Verdana;fontSize=12;dashed=1;exitX=1;exitY=0.5;exitDx=0;exitDy=0;" edge="1" parent="1">
          <mxGeometry relative="1" as="geometry">
            <Array as="points">
              <mxPoint x="-460" y="-40" />
              <mxPoint x="-460" y="30" />
              <mxPoint x="-290" y="30" />
              <mxPoint x="-290" y="100" />
            </Array>
            <mxPoint x="-540" y="-40" as="sourcePoint" />
            <mxPoint x="-290" y="100" as="targetPoint" />
          </mxGeometry>
        </mxCell>
        <mxCell id="m6kXR_CL7WyC1PEhrBlB-123" style="edgeStyle=orthogonalEdgeStyle;html=1;labelBackgroundColor=none;startFill=0;startSize=8;endArrow=open;endFill=0;endSize=16;fontFamily=Verdana;fontSize=12;dashed=1;exitX=1;exitY=0.5;exitDx=0;exitDy=0;entryX=1.012;entryY=0.06;entryDx=0;entryDy=0;entryPerimeter=0;" edge="1" parent="1" target="m6kXR_CL7WyC1PEhrBlB-52">
          <mxGeometry relative="1" as="geometry">
            <Array as="points">
              <mxPoint x="-460" y="-40" />
              <mxPoint x="-460" y="330" />
            </Array>
            <mxPoint x="-540" y="-40" as="sourcePoint" />
            <mxPoint x="-400" y="207" as="targetPoint" />
          </mxGeometry>
        </mxCell>
        <mxCell id="m6kXR_CL7WyC1PEhrBlB-124" style="edgeStyle=orthogonalEdgeStyle;html=1;labelBackgroundColor=none;startFill=0;startSize=8;endArrow=open;endFill=0;endSize=16;fontFamily=Verdana;fontSize=12;dashed=1;entryX=0.476;entryY=-0.022;entryDx=0;entryDy=0;entryPerimeter=0;" edge="1" parent="1" target="m6kXR_CL7WyC1PEhrBlB-52">
          <mxGeometry relative="1" as="geometry">
            <Array as="points" />
            <mxPoint x="-670" y="30" as="sourcePoint" />
            <mxPoint x="-670" y="310" as="targetPoint" />
          </mxGeometry>
        </mxCell>
        <mxCell id="m6kXR_CL7WyC1PEhrBlB-126" style="edgeStyle=orthogonalEdgeStyle;html=1;labelBackgroundColor=none;startFill=0;startSize=8;endArrow=open;endFill=0;endSize=16;fontFamily=Verdana;fontSize=12;dashed=1;exitX=0.002;exitY=0.8;exitDx=0;exitDy=0;exitPerimeter=0;" edge="1" parent="1" source="m6kXR_CL7WyC1PEhrBlB-61">
          <mxGeometry relative="1" as="geometry">
            <Array as="points" />
            <mxPoint x="-999" y="390" as="sourcePoint" />
            <mxPoint x="-980" y="330" as="targetPoint" />
          </mxGeometry>
        </mxCell>
        <mxCell id="m6kXR_CL7WyC1PEhrBlB-127" style="edgeStyle=orthogonalEdgeStyle;html=1;labelBackgroundColor=none;startFill=0;startSize=8;endArrow=open;endFill=0;endSize=16;fontFamily=Verdana;fontSize=12;dashed=1;exitX=-0.007;exitY=0.062;exitDx=0;exitDy=0;exitPerimeter=0;entryX=0.48;entryY=0;entryDx=0;entryDy=0;entryPerimeter=0;" edge="1" parent="1" source="m6kXR_CL7WyC1PEhrBlB-100" target="m6kXR_CL7WyC1PEhrBlB-88">
          <mxGeometry relative="1" as="geometry">
            <Array as="points" />
            <mxPoint x="-850" y="-68" as="sourcePoint" />
            <mxPoint x="-1041" y="-150" as="targetPoint" />
          </mxGeometry>
        </mxCell>
      </root>
    </mxGraphModel>
  </diagram>
</mxfile>
